<svg width="133" height="20" viewBox="0 0 133 20" fill="none" xmlns="http://www.w3.org/2000/svg">
<path d="M7.5 7.70456V12.2836" stroke="#9775FA" stroke-width="1.5" stroke-linecap="round" stroke-linejoin="round"/>
<path d="M9.79185 9.99405H5.2085" stroke="#9775FA" stroke-width="1.5" stroke-linecap="round" stroke-linejoin="round"/>
<path fill-rule="evenodd" clip-rule="evenodd" d="M10.4286 3.75H4.57143C2.52976 3.75 1.25 5.19505 1.25 7.24072V12.7593C1.25 14.8049 2.52381 16.25 4.57143 16.25H10.4286C12.4762 16.25 13.75 14.8049 13.75 12.7593V7.24072C13.75 5.19505 12.4762 3.75 10.4286 3.75Z" stroke="#9775FA" stroke-width="1.5" stroke-linecap="round" stroke-linejoin="round"/>
<path d="M22.4027 16.5L23.5376 13.228H28.3672L29.4961 16.5H31.4762L27.027 4.13636H24.8718L20.4226 16.5H22.4027ZM24.081 11.6584L25.9041 6.3821H26.0007L27.8239 11.6584H24.081ZM36.4386 16.6811C38.1289 16.6811 38.793 15.6488 39.119 15.0572H39.2699V16.5H41.0327V4.13636H39.2276V8.73047H39.119C38.793 8.15696 38.1772 7.10653 36.4506 7.10653C34.2109 7.10653 32.5629 8.87535 32.5629 11.8817C32.5629 14.8821 34.1868 16.6811 36.4386 16.6811ZM36.837 15.1417C35.2251 15.1417 34.386 13.723 34.386 11.8636C34.386 10.0224 35.207 8.63991 36.837 8.63991C38.4126 8.63991 39.2578 9.92578 39.2578 11.8636C39.2578 13.8136 38.3945 15.1417 36.837 15.1417ZM47.0802 16.6811C48.7705 16.6811 49.4346 15.6488 49.7606 15.0572H49.9115V16.5H51.6743V4.13636H49.8692V8.73047H49.7606C49.4346 8.15696 48.8188 7.10653 47.0922 7.10653C44.8525 7.10653 43.2045 8.87535 43.2045 11.8817C43.2045 14.8821 44.8284 16.6811 47.0802 16.6811ZM47.4786 15.1417C45.8667 15.1417 45.0276 13.723 45.0276 11.8636C45.0276 10.0224 45.8486 8.63991 47.4786 8.63991C49.0542 8.63991 49.8994 9.92578 49.8994 11.8636C49.8994 13.8136 49.0361 15.1417 47.4786 15.1417ZM60.5546 10.9943C60.5546 9.51527 61.4601 8.6701 62.7158 8.6701C63.9413 8.6701 64.6839 9.47301 64.6839 10.8192V16.5H66.4889V10.6019C66.4889 8.30788 65.2272 7.10653 63.3316 7.10653C61.9371 7.10653 61.0255 7.75249 60.5969 8.73651H60.4822V7.22727H58.7496V16.5H60.5546V10.9943ZM72.9062 16.6871C74.9285 16.6871 76.3593 15.6911 76.7698 14.1818L75.0613 13.8739C74.7354 14.7493 73.9506 15.196 72.9243 15.196C71.3788 15.196 70.3405 14.1939 70.2922 12.407H76.8845V11.767C76.8845 8.41655 74.8802 7.10653 72.7794 7.10653C70.1956 7.10653 68.4932 9.07457 68.4932 11.924C68.4932 14.8036 70.1714 16.6871 72.9062 16.6871ZM70.2982 11.0547C70.3706 9.73864 71.3245 8.59766 72.7915 8.59766C74.192 8.59766 75.1096 9.63601 75.1157 11.0547H70.2982ZM80.8809 16.5H82.7162L84.5997 9.80504H84.7385L86.6221 16.5H88.4633L91.186 7.22727H89.3206L87.5155 14.0067H87.425L85.6139 7.22727H83.7485L81.9253 14.0369H81.8348L80.0177 7.22727H78.1523L80.8809 16.5ZM101.304 16.6871C103.495 16.6871 104.914 15.3711 105.113 13.5661H103.356C103.127 14.5682 102.348 15.1598 101.316 15.1598C99.7886 15.1598 98.8046 13.886 98.8046 11.8636C98.8046 9.87749 99.8067 8.62784 101.316 8.62784C102.463 8.62784 103.163 9.35227 103.356 10.2216H105.113C104.92 8.35014 103.393 7.10653 101.286 7.10653C98.6718 7.10653 96.9814 9.07457 96.9814 11.9059C96.9814 14.701 98.6114 16.6871 101.304 16.6871ZM109.742 16.7053C111.275 16.7053 112.139 15.9265 112.483 15.2322H112.555V16.5H114.318V10.3423C114.318 7.64382 112.193 7.10653 110.72 7.10653C109.042 7.10653 107.496 7.78267 106.893 9.47301L108.589 9.85938C108.855 9.20135 109.531 8.56747 110.744 8.56747C111.909 8.56747 112.507 9.1772 112.507 10.2276V10.2699C112.507 10.9279 111.831 10.9158 110.165 11.109C108.408 11.3143 106.609 11.7731 106.609 13.88C106.609 15.7031 107.979 16.7053 109.742 16.7053ZM110.134 15.2564C109.114 15.2564 108.378 14.7976 108.378 13.9041C108.378 12.9382 109.235 12.5941 110.279 12.4553C110.865 12.3768 112.253 12.2198 112.513 11.9602V13.1555C112.513 14.2543 111.638 15.2564 110.134 15.2564ZM116.722 16.5H118.527V10.8374C118.527 9.62393 119.463 8.74858 120.743 8.74858C121.117 8.74858 121.54 8.81499 121.685 8.85724V7.13068C121.503 7.10653 121.147 7.08842 120.918 7.08842C119.831 7.08842 118.902 7.70419 118.563 8.70028H118.467V7.22727H116.722V16.5ZM126.386 16.6811C128.076 16.6811 128.74 15.6488 129.066 15.0572H129.217V16.5H130.98V4.13636H129.175V8.73047H129.066C128.74 8.15696 128.124 7.10653 126.398 7.10653C124.158 7.10653 122.51 8.87535 122.51 11.8817C122.51 14.8821 124.134 16.6811 126.386 16.6811ZM126.784 15.1417C125.172 15.1417 124.333 13.723 124.333 11.8636C124.333 10.0224 125.154 8.63991 126.784 8.63991C128.36 8.63991 129.205 9.92578 129.205 11.8636C129.205 13.8136 128.342 15.1417 126.784 15.1417Z" fill="#9775FA"/>
</svg>
