<?xml version="1.0" encoding="UTF-8"?>
<!DOCTYPE svg PUBLIC "-//W3C//DTD SVG 1.1//EN" "http://www.w3.org/Graphics/SVG/1.1/DTD/svg11.dtd">
<svg xmlns="http://www.w3.org/2000/svg" version="1.1" width="612px" height="408px" style="shape-rendering:geometricPrecision; text-rendering:geometricPrecision; image-rendering:optimizeQuality; fill-rule:evenodd; clip-rule:evenodd" xmlns:xlink="http://www.w3.org/1999/xlink">
<g><path style="opacity:0.872" fill="#182318" d="M 254.5,67.5 C 263.849,67.4833 273.182,67.8167 282.5,68.5C 291.896,69.6742 300.563,72.6742 308.5,77.5C 303.635,77.3816 298.968,75.8816 294.5,73C 284.28,70.6948 273.947,69.1948 263.5,68.5C 256.531,68.6146 249.698,69.6146 243,71.5C 240.929,70.3327 239.429,70.9994 238.5,73.5C 235.607,74.7404 232.773,76.0737 230,77.5C 227.068,77.145 224.234,76.8116 221.5,76.5C 231.932,71.475 242.932,68.475 254.5,67.5 Z"/></g>
<g><path style="opacity:0.047" fill="#4b6b53" d="M 254.5,67.5 C 257.649,66.8349 260.982,66.5016 264.5,66.5C 270.726,66.4359 276.726,67.1025 282.5,68.5C 273.182,67.8167 263.849,67.4833 254.5,67.5 Z"/></g>
<g><path style="opacity:1" fill="#151412" d="M 308.5,77.5 C 310.017,77.5106 311.184,78.1772 312,79.5C 312.383,78.944 312.883,78.6107 313.5,78.5C 316.577,78.6529 319.411,77.9863 322,76.5C 323.107,76.5852 324.107,76.9186 325,77.5C 327.167,75.6667 329.333,73.8333 331.5,72C 346.421,68.2959 361.421,67.7959 376.5,70.5C 377.925,70.3767 379.258,70.0434 380.5,69.5C 388.021,73.1666 395.855,76.4999 404,79.5C 404.399,79.2716 404.565,78.9382 404.5,78.5C 415.892,84.0247 425.559,91.6914 433.5,101.5C 435.576,106.171 437.576,111.005 439.5,116C 437.277,118.444 434.611,119.11 431.5,118C 429.973,120.439 427.973,122.439 425.5,124C 426.252,124.671 426.586,125.504 426.5,126.5C 423.651,128.85 420.485,130.85 417,132.5C 414.416,130.326 412.582,127.659 411.5,124.5C 410.653,120.616 408.986,117.116 406.5,114C 397.674,108.418 388.674,103.085 379.5,98C 366.09,95.7287 352.757,96.062 339.5,99C 338.902,103.074 339.902,106.907 342.5,110.5C 343.689,111.429 345.022,111.762 346.5,111.5C 346.959,116.543 348.959,120.876 352.5,124.5C 351.361,126.396 352.027,127.396 354.5,127.5C 355.869,137.736 357.869,147.736 360.5,157.5C 359.095,171.72 357.095,186.053 354.5,200.5C 354.075,203.119 353.075,205.453 351.5,207.5C 349.983,207.511 348.816,208.177 348,209.5C 345.286,213.766 342.452,217.933 339.5,222C 338.551,222.617 337.718,222.451 337,221.5C 337.199,224.439 338.032,227.272 339.5,230C 341.433,230.251 343.266,230.751 345,231.5C 346.628,230.903 348.295,231.237 350,232.5C 351.101,230.606 352.434,229.939 354,230.5C 359.634,233.527 364.967,233.861 370,231.5C 373.626,234.687 376.293,234.021 378,229.5C 378.333,229.833 378.667,230.167 379,230.5C 380.11,228.963 381.61,228.297 383.5,228.5C 383.56,229.043 383.893,229.376 384.5,229.5C 385.85,228.05 387.516,227.383 389.5,227.5C 389.921,225.09 391.254,223.257 393.5,222C 398.821,217.672 404.488,213.838 410.5,210.5C 411.498,207.836 412.998,205.503 415,203.5C 415.49,202.207 415.657,200.873 415.5,199.5C 417.124,199.36 418.29,200.027 419,201.5C 419.383,200.944 419.883,200.611 420.5,200.5C 425.919,202.044 430.919,204.378 435.5,207.5C 435.389,208.117 435.056,208.617 434.5,209C 436.001,210.252 437.668,211.252 439.5,212C 438.167,213.667 438.167,215.333 439.5,217C 438.552,217.483 437.552,217.649 436.5,217.5C 435.565,221.685 433.898,225.352 431.5,228.5C 427.469,234.856 422.135,239.856 415.5,243.5C 410.302,245.354 405.302,247.687 400.5,250.5C 400.167,249.833 399.833,249.167 399.5,248.5C 397.827,250.086 395.827,250.753 393.5,250.5C 393.371,252.216 393.038,253.883 392.5,255.5C 386.449,258.183 380.115,259.849 373.5,260.5C 357.415,259.875 342.082,258.041 327.5,255C 326.62,253.644 326.286,252.144 326.5,250.5C 323.482,250.665 320.482,250.498 317.5,250C 314.968,247.585 311.968,246.919 308.5,248C 305.673,249.825 302.839,251.658 300,253.5C 299.586,253.043 299.086,252.709 298.5,252.5C 291.935,255.833 284.602,257.999 276.5,259C 267.843,259.737 259.177,260.237 250.5,260.5C 233.677,258.249 218.677,251.916 205.5,241.5C 205.611,240.883 205.944,240.383 206.5,240C 204.396,239.209 203.063,237.709 202.5,235.5C 199.085,233.875 196.418,231.375 194.5,228C 193.552,227.517 192.552,227.351 191.5,227.5C 191.762,226.022 191.429,224.689 190.5,223.5C 186.668,220.834 184.834,217.167 185,212.5C 187.693,212.047 189.527,210.547 190.5,208C 194.5,206.333 198.5,204.667 202.5,203C 203.823,202.184 204.489,201.017 204.5,199.5C 207.676,199.84 209.843,201.506 211,204.5C 211.383,203.944 211.883,203.611 212.5,203.5C 212.931,206.449 214.098,209.116 216,211.5C 220.952,216.479 226.619,220.479 233,223.5C 233.671,222.748 234.504,222.414 235.5,222.5C 237.153,222.66 238.486,223.326 239.5,224.5C 239.414,225.496 239.748,226.329 240.5,227C 243.509,226.84 245.675,228.007 247,230.5C 247.561,229.978 248.228,229.645 249,229.5C 256.986,230.928 264.986,231.928 273,232.5C 275.802,231.67 278.635,230.837 281.5,230C 283.063,229.241 284.063,228.074 284.5,226.5C 284.5,226.167 284.5,225.833 284.5,225.5C 284.611,224.883 284.944,224.383 285.5,224C 281.391,220.257 278.225,215.757 276,210.5C 275.329,209.748 274.496,209.414 273.5,209.5C 272.596,208.791 272.263,207.791 272.5,206.5C 272.938,206.565 273.272,206.399 273.5,206C 271.486,199.467 269.32,192.967 267,186.5C 266.57,176.629 266.07,166.963 265.5,157.5C 266.341,153.318 267.341,149.151 268.5,145C 266.116,142.486 266.616,139.652 270,136.5C 269.284,130.239 271.618,125.572 277,122.5C 276.992,118.763 277.992,115.097 280,111.5C 282.246,108.475 284.413,105.475 286.5,102.5C 285.871,100.003 284.204,98.6696 281.5,98.5C 279.218,99.2234 276.884,99.5567 274.5,99.5C 260.976,98.3656 247.976,100.366 235.5,105.5C 231.399,105.202 228.733,106.868 227.5,110.5C 227.158,111.338 226.492,111.672 225.5,111.5C 221.513,111.011 219.18,112.678 218.5,116.5C 217.5,116.5 216.5,116.5 215.5,116.5C 215.167,118.5 214.833,120.5 214.5,122.5C 212.252,125.982 209.752,129.316 207,132.5C 198.802,127.167 190.302,122.5 181.5,118.5C 184.824,115.201 187.157,111.201 188.5,106.5C 190.561,103.73 193.061,101.396 196,99.5C 196.494,97.8659 196.66,96.1992 196.5,94.5C 198.167,94.5 199.833,94.5 201.5,94.5C 201.33,93.1779 201.663,92.0113 202.5,91C 206.056,88.1106 210.056,86.1106 214.5,85C 217.538,83.1502 219.538,80.6502 220.5,77.5C 220.5,76.8333 220.833,76.5 221.5,76.5C 224.234,76.8116 227.068,77.145 230,77.5C 232.773,76.0737 235.607,74.7404 238.5,73.5C 239.429,70.9994 240.929,70.3327 243,71.5C 249.698,69.6146 256.531,68.6146 263.5,68.5C 273.947,69.1948 284.28,70.6948 294.5,73C 298.968,75.8816 303.635,77.3816 308.5,77.5 Z M 312.5,120.5 C 321.835,131.184 327.502,143.517 329.5,157.5C 329.5,157.833 329.5,158.167 329.5,158.5C 330.131,173.697 326.465,187.697 318.5,200.5C 316.732,202.508 315.066,204.674 313.5,207C 312.5,207.667 311.5,207.667 310.5,207C 291.231,181.611 289.565,155.111 305.5,127.5C 307.473,124.861 309.806,122.527 312.5,120.5 Z"/></g>
<g><path style="opacity:0.875" fill="#1b291c" d="M 380.5,69.5 C 389.345,70.5553 397.345,73.5553 404.5,78.5C 404.565,78.9382 404.399,79.2716 404,79.5C 395.855,76.4999 388.021,73.1666 380.5,69.5 Z"/></g>
<g><path style="opacity:1" fill="#223024" d="M 380.5,69.5 C 379.258,70.0434 377.925,70.3767 376.5,70.5C 361.421,67.7959 346.421,68.2959 331.5,72C 329.333,73.8333 327.167,75.6667 325,77.5C 324.107,76.9186 323.107,76.5852 322,76.5C 319.411,77.9863 316.577,78.6529 313.5,78.5C 334.711,66.8028 357.045,63.8028 380.5,69.5 Z"/></g>
<g><path style="opacity:0.996" fill="#1a2419" d="M 220.5,77.5 C 219.538,80.6502 217.538,83.1502 214.5,85C 210.056,86.1106 206.056,88.1106 202.5,91C 201.663,92.0113 201.33,93.1779 201.5,94.5C 199.833,94.5 198.167,94.5 196.5,94.5C 203.409,87.3714 211.409,81.7048 220.5,77.5 Z"/></g>
<g><path style="opacity:1" fill="#1d261d" d="M 411.5,124.5 C 392.552,102.297 368.886,94.9638 340.5,102.5C 342.526,105.518 344.526,108.518 346.5,111.5C 345.022,111.762 343.689,111.429 342.5,110.5C 339.902,106.907 338.902,103.074 339.5,99C 352.757,96.062 366.09,95.7287 379.5,98C 388.674,103.085 397.674,108.418 406.5,114C 408.986,117.116 410.653,120.616 411.5,124.5 Z"/></g>
<g><path style="opacity:0.875" fill="#233623" d="M 235.5,105.5 C 233.206,107.653 230.54,109.32 227.5,110.5C 228.733,106.868 231.399,105.202 235.5,105.5 Z"/></g>
<g><path style="opacity:1" fill="#1c261b" d="M 196.5,94.5 C 196.66,96.1992 196.494,97.8659 196,99.5C 193.061,101.396 190.561,103.73 188.5,106.5C 187.157,111.201 184.824,115.201 181.5,118.5C 179.086,117.223 178.919,115.557 181,113.5C 185.274,106.397 190.441,100.064 196.5,94.5 Z"/></g>
<g><path style="opacity:1" fill="#1f2b1f" d="M 225.5,111.5 C 222.044,115.446 218.377,119.113 214.5,122.5C 214.833,120.5 215.167,118.5 215.5,116.5C 216.5,116.5 217.5,116.5 218.5,116.5C 219.18,112.678 221.513,111.011 225.5,111.5 Z"/></g>
<g><path style="opacity:1" fill="#181f16" d="M 433.5,101.5 C 437.303,106.149 440.97,110.982 444.5,116C 443.833,117 443.167,118 442.5,119C 437.27,121.733 431.936,124.233 426.5,126.5C 426.586,125.504 426.252,124.671 425.5,124C 427.973,122.439 429.973,120.439 431.5,118C 434.611,119.11 437.277,118.444 439.5,116C 437.576,111.005 435.576,106.171 433.5,101.5 Z"/></g>
<g><path style="opacity:0.843" fill="#203121" d="M 312.5,120.5 C 309.806,122.527 307.473,124.861 305.5,127.5C 305.945,123.887 307.779,121.22 311,119.5C 311.765,119.57 312.265,119.903 312.5,120.5 Z"/></g>
<g><path style="opacity:1" fill="#232e23" d="M 346.5,111.5 C 350.202,116.236 352.868,121.57 354.5,127.5C 352.027,127.396 351.361,126.396 352.5,124.5C 348.959,120.876 346.959,116.543 346.5,111.5 Z"/></g>
<g><path style="opacity:1" fill="#1b261b" d="M 312.5,120.5 C 316.321,120.713 318.487,122.713 319,126.5C 321.724,127.688 324.057,129.355 326,131.5C 325.735,135.693 326.735,139.693 329,143.5C 329.499,148.155 329.666,152.821 329.5,157.5C 327.502,143.517 321.835,131.184 312.5,120.5 Z"/></g>
<g><path style="opacity:0.855" fill="#1e291e" d="M 354.5,127.5 C 358.851,136.917 361.184,146.917 361.5,157.5C 361.167,157.5 360.833,157.5 360.5,157.5C 357.869,147.736 355.869,137.736 354.5,127.5 Z"/></g>
<g><path style="opacity:0.824" fill="#324a33" d="M 267.5,132.5 C 267.483,136.534 266.483,140.201 264.5,143.5C 264.926,139.573 265.926,135.907 267.5,132.5 Z"/></g>
<g><path style="opacity:1" fill="#1c241b" d="M 272.5,206.5 C 265.253,193.496 261.586,179.33 261.5,164C 261.813,157.013 262.813,150.18 264.5,143.5C 266.483,140.201 267.483,136.534 267.5,132.5C 271.251,121.665 276.585,111.665 283.5,102.5C 280.424,101.366 277.424,100.366 274.5,99.5C 276.884,99.5567 279.218,99.2234 281.5,98.5C 284.204,98.6696 285.871,100.003 286.5,102.5C 284.413,105.475 282.246,108.475 280,111.5C 277.992,115.097 276.992,118.763 277,122.5C 271.618,125.572 269.284,130.239 270,136.5C 266.616,139.652 266.116,142.486 268.5,145C 267.341,149.151 266.341,153.318 265.5,157.5C 266.07,166.963 266.57,176.629 267,186.5C 269.32,192.967 271.486,199.467 273.5,206C 273.272,206.399 272.938,206.565 272.5,206.5 Z"/></g>
<g><path style="opacity:0.872" fill="#1a231a" d="M 305.5,127.5 C 289.565,155.111 291.231,181.611 310.5,207C 311.5,207.667 312.5,207.667 313.5,207C 315.066,204.674 316.732,202.508 318.5,200.5C 318.711,205.074 317.044,208.741 313.5,211.5C 313.709,212.086 314.043,212.586 314.5,213C 312.369,212.602 310.369,211.602 308.5,210C 309.167,209.667 309.833,209.333 310.5,209C 309.207,208.51 307.873,208.343 306.5,208.5C 305.835,203.171 303.168,199.171 298.5,196.5C 294.469,183.338 291.469,170.004 289.5,156.5C 291.291,150.297 292.624,143.964 293.5,137.5C 294.5,137.5 295.5,137.5 296.5,137.5C 296.491,135.692 296.991,134.025 298,132.5C 300.9,131.263 303.4,129.596 305.5,127.5 Z"/></g>
<g><path style="opacity:1" fill="#1d2c1d" d="M 360.5,157.5 C 360.833,157.5 361.167,157.5 361.5,157.5C 362.962,172.397 360.629,186.73 354.5,200.5C 357.095,186.053 359.095,171.72 360.5,157.5 Z"/></g>
<g><path style="opacity:1" fill="#243124" d="M 329.5,158.5 C 330.117,158.611 330.617,158.944 331,159.5C 331.537,166.863 331.203,174.196 330,181.5C 328.578,185.321 326.912,188.988 325,192.5C 325.873,197.735 323.706,200.402 318.5,200.5C 326.465,187.697 330.131,173.697 329.5,158.5 Z"/></g>
<g><path style="opacity:0.917" fill="#243b26" d="M 212.5,203.5 C 211.883,203.611 211.383,203.944 211,204.5C 209.843,201.506 207.676,199.84 204.5,199.5C 205.261,198.609 206.261,197.942 207.5,197.5C 209.914,198.911 211.581,200.911 212.5,203.5 Z"/></g>
<g><path style="opacity:1" fill="#1a251a" d="M 204.5,199.5 C 204.489,201.017 203.823,202.184 202.5,203C 198.5,204.667 194.5,206.333 190.5,208C 189.527,210.547 187.693,212.047 185,212.5C 184.834,217.167 186.668,220.834 190.5,223.5C 191.429,224.689 191.762,226.022 191.5,227.5C 186.2,223.204 182.7,217.871 181,211.5C 188.496,206.835 196.33,202.835 204.5,199.5 Z"/></g>
<g><path style="opacity:1" fill="#1f291e" d="M 435.5,207.5 C 438.722,208.604 441.389,210.438 443.5,213C 440.415,218.913 436.415,224.08 431.5,228.5C 433.898,225.352 435.565,221.685 436.5,217.5C 437.552,217.649 438.552,217.483 439.5,217C 438.167,215.333 438.167,213.667 439.5,212C 437.668,211.252 436.001,210.252 434.5,209C 435.056,208.617 435.389,208.117 435.5,207.5 Z"/></g>
<g><path style="opacity:1" fill="#1e2a1e" d="M 212.5,203.5 C 218.837,211.494 226.504,217.827 235.5,222.5C 234.504,222.414 233.671,222.748 233,223.5C 226.619,220.479 220.952,216.479 216,211.5C 214.098,209.116 212.931,206.449 212.5,203.5 Z"/></g>
<g><path style="opacity:0.998" fill="#1a251a" d="M 420.5,200.5 C 419.883,200.611 419.383,200.944 419,201.5C 418.29,200.027 417.124,199.36 415.5,199.5C 415.657,200.873 415.49,202.207 415,203.5C 412.998,205.503 411.498,207.836 410.5,210.5C 404.488,213.838 398.821,217.672 393.5,222C 391.254,223.257 389.921,225.09 389.5,227.5C 387.516,227.383 385.85,228.05 384.5,229.5C 383.893,229.376 383.56,229.043 383.5,228.5C 381.167,227.833 378.833,227.167 376.5,226.5C 393.021,221.811 406.021,212.311 415.5,198C 417.668,197.751 419.335,198.584 420.5,200.5 Z"/></g>
<g><path style="opacity:0.929" fill="#263324" d="M 273.5,209.5 C 274.496,209.414 275.329,209.748 276,210.5C 278.225,215.757 281.391,220.257 285.5,224C 284.944,224.383 284.611,224.883 284.5,225.5C 279.859,220.9 276.192,215.566 273.5,209.5 Z"/></g>
<g><path style="opacity:1" fill="#232f23" d="M 239.5,224.5 C 247.591,227.272 255.925,228.939 264.5,229.5C 271.232,228.826 277.898,227.826 284.5,226.5C 284.063,228.074 283.063,229.241 281.5,230C 278.635,230.837 275.802,231.67 273,232.5C 264.986,231.928 256.986,230.928 249,229.5C 248.228,229.645 247.561,229.978 247,230.5C 245.675,228.007 243.509,226.84 240.5,227C 239.748,226.329 239.414,225.496 239.5,224.5 Z"/></g>
<g><path style="opacity:1" fill="#1e251c" d="M 351.5,207.5 C 348.537,214.305 344.537,220.471 339.5,226C 351.843,230.258 364.176,230.425 376.5,226.5C 378.833,227.167 381.167,227.833 383.5,228.5C 381.61,228.297 380.11,228.963 379,230.5C 378.667,230.167 378.333,229.833 378,229.5C 376.293,234.021 373.626,234.687 370,231.5C 364.967,233.861 359.634,233.527 354,230.5C 352.434,229.939 351.101,230.606 350,232.5C 348.295,231.237 346.628,230.903 345,231.5C 343.266,230.751 341.433,230.251 339.5,230C 338.032,227.272 337.199,224.439 337,221.5C 337.718,222.451 338.551,222.617 339.5,222C 342.452,217.933 345.286,213.766 348,209.5C 348.816,208.177 349.983,207.511 351.5,207.5 Z"/></g>
<g><path style="opacity:0.922" fill="#19271a" d="M 191.5,227.5 C 192.552,227.351 193.552,227.517 194.5,228C 196.418,231.375 199.085,233.875 202.5,235.5C 203.063,237.709 204.396,239.209 206.5,240C 205.944,240.383 205.611,240.883 205.5,241.5C 202.997,239.167 200.331,237.001 197.5,235C 194.882,232.894 192.882,230.394 191.5,227.5 Z"/></g>
<g><path style="opacity:1" fill="#253325" d="M 373.5,260.5 C 352.018,264.056 331.685,260.389 312.5,249.5C 292.888,260.25 272.222,263.916 250.5,260.5C 259.177,260.237 267.843,259.737 276.5,259C 284.602,257.999 291.935,255.833 298.5,252.5C 299.086,252.709 299.586,253.043 300,253.5C 302.839,251.658 305.673,249.825 308.5,248C 311.968,246.919 314.968,247.585 317.5,250C 320.482,250.498 323.482,250.665 326.5,250.5C 326.286,252.144 326.62,253.644 327.5,255C 342.082,258.041 357.415,259.875 373.5,260.5 Z"/></g>
<g><path style="opacity:1" fill="#1a2218" d="M 415.5,243.5 C 408.795,249.172 401.129,253.172 392.5,255.5C 393.038,253.883 393.371,252.216 393.5,250.5C 395.827,250.753 397.827,250.086 399.5,248.5C 399.833,249.167 400.167,249.833 400.5,250.5C 405.302,247.687 410.302,245.354 415.5,243.5 Z"/></g>
<g><path style="opacity:0.02" fill="#5e6861" d="M 402.5,273.5 C 417.328,272.339 432.328,272.172 447.5,273C 448.823,277.6 448.823,282.1 447.5,286.5C 447.817,282.298 447.483,278.298 446.5,274.5C 432.01,273.504 417.343,273.171 402.5,273.5 Z"/></g>
<g><path style="opacity:1" fill="#151311" d="M 213.5,309.5 C 202.084,309.168 191.417,309.501 181.5,310.5C 181.5,311.167 181.167,311.5 180.5,311.5C 178.29,312.455 177.957,313.955 179.5,316C 178.85,322.778 178.183,329.611 177.5,336.5C 174.467,337.927 171.634,337.594 169,335.5C 168.5,315.503 168.333,295.503 168.5,275.5C 172.106,275.211 175.606,275.544 179,276.5C 179.764,282.04 179.597,287.54 178.5,293C 178.639,294.301 179.305,295.134 180.5,295.5C 180.5,296.167 180.833,296.5 181.5,296.5C 181.804,297.15 182.137,297.817 182.5,298.5C 184.167,298.833 185.833,299.167 187.5,299.5C 194.843,298.362 202.176,298.362 209.5,299.5C 209.808,300.308 210.308,300.975 211,301.5C 213.831,299.211 215.331,296.211 215.5,292.5C 214.586,286.541 214.253,280.541 214.5,274.5C 217.833,274.5 221.167,274.5 224.5,274.5C 224.667,294.836 224.5,315.169 224,335.5C 221.167,337.827 218.167,337.827 215,335.5C 214.83,326.657 214.33,317.99 213.5,309.5 Z"/></g>
<g><path style="opacity:1" fill="#151312" d="M 322.5,274.5 C 327.517,274.26 332.517,274.76 337.5,276C 336.137,278.129 336.471,278.629 338.5,277.5C 340.831,279.617 341.997,282.284 342,285.5C 343.351,285.446 344.518,285.946 345.5,287C 346.229,291.486 347.563,295.653 349.5,299.5C 345.195,297.656 340.862,295.656 336.5,293.5C 335.89,292.609 335.557,291.609 335.5,290.5C 336.478,289.703 336.145,289.036 334.5,288.5C 333.667,304.156 333.167,319.823 333,335.5C 329.87,338.122 326.703,338.122 323.5,335.5C 322.5,315.178 322.167,294.844 322.5,274.5 Z"/></g>
<g><path style="opacity:1" fill="#1c241b" d="M 153.5,288.5 C 151.006,286.521 148.173,285.187 145,284.5C 141.849,285.093 138.682,285.593 135.5,286C 136.872,286.402 138.205,286.902 139.5,287.5C 141.093,290.361 142.927,293.028 145,295.5C 146.605,294.899 147.938,293.899 149,292.5C 149.278,293.416 149.778,294.082 150.5,294.5C 149.217,296.815 147.217,298.148 144.5,298.5C 136.003,286.041 125.336,283.708 112.5,291.5C 112.579,290.07 112.246,288.736 111.5,287.5C 114.167,286.833 116.833,286.167 119.5,285.5C 119.709,284.914 120.043,284.414 120.5,284C 124.833,283.667 129.167,283.333 133.5,283C 133.167,282.667 132.833,282.333 132.5,282C 133.416,281.626 134.25,281.126 135,280.5C 137.537,280.587 140.037,280.587 142.5,280.5C 139.226,279.129 136.226,277.296 133.5,275C 126.152,274.479 118.819,274.645 111.5,275.5C 124.893,269.084 137.226,270.918 148.5,281C 150.808,283.128 152.474,285.628 153.5,288.5 Z"/></g>
<g><path style="opacity:1" fill="#1d281d" d="M 303.5,319.5 C 302.504,319.586 301.671,319.252 301,318.5C 300.448,315.953 299.114,313.953 297,312.5C 295.354,307.103 293.521,301.436 291.5,295.5C 288.027,292.302 286.361,288.302 286.5,283.5C 285.178,283.67 284.011,283.337 283,282.5C 282.088,280.341 281.255,278.175 280.5,276C 275.47,275.586 270.47,275.919 265.5,277C 264.842,278.905 263.675,280.405 262,281.5C 260.858,283.618 260.358,285.618 260.5,287.5C 259.423,288.705 258.09,289.372 256.5,289.5C 258.691,283.756 261.357,278.256 264.5,273C 270.5,272.333 276.5,272.333 282.5,273C 290.188,288.248 297.188,303.748 303.5,319.5 Z"/></g>
<g><path style="opacity:0.027" fill="#4c6e4d" d="M 213.5,273.5 C 213.831,281.196 213.497,288.862 212.5,296.5C 211.893,296.376 211.56,296.043 211.5,295.5C 212.167,288.167 212.833,280.833 213.5,273.5 Z"/></g>
<g><path style="opacity:0.031" fill="#4b6558" d="M 339.5,273.5 C 333.642,273.178 327.975,273.511 322.5,274.5C 321.503,295.66 321.169,316.993 321.5,338.5C 320.337,317.004 320.171,295.337 321,273.5C 327.266,272.174 333.432,272.174 339.5,273.5 Z"/></g>
<g><path style="opacity:0.035" fill="#526d55" d="M 447.5,286.5 C 437.167,287.167 426.833,287.833 416.5,288.5C 415.957,288.44 415.624,288.107 415.5,287.5C 426.146,286.501 436.813,286.168 447.5,286.5 Z"/></g>
<g><path style="opacity:0.012" fill="#556554" d="M 181.5,281.5 C 181.5,286.167 181.5,290.833 181.5,295.5C 191.167,295.5 200.833,295.5 210.5,295.5C 201.014,296.494 191.348,296.827 181.5,296.5C 180.833,296.5 180.5,296.167 180.5,295.5C 180.181,290.637 180.514,285.97 181.5,281.5 Z"/></g>
<g><path style="opacity:0.881" fill="#1d2b1d" d="M 213.5,338.5 C 213.5,328.833 213.5,319.167 213.5,309.5C 214.33,317.99 214.83,326.657 215,335.5C 218.167,337.827 221.167,337.827 224,335.5C 224.5,315.169 224.667,294.836 224.5,274.5C 221.167,274.5 217.833,274.5 214.5,274.5C 214.253,280.541 214.586,286.541 215.5,292.5C 215.331,296.211 213.831,299.211 211,301.5C 210.308,300.975 209.808,300.308 209.5,299.5C 202.176,298.362 194.843,298.362 187.5,299.5C 185.833,299.167 184.167,298.833 182.5,298.5C 182.137,297.817 181.804,297.15 181.5,296.5C 191.348,296.827 201.014,296.494 210.5,295.5C 210.833,295.5 211.167,295.5 211.5,295.5C 211.56,296.043 211.893,296.376 212.5,296.5C 213.497,288.862 213.831,281.196 213.5,273.5C 217.566,272.178 221.733,272.178 226,273.5C 226.667,295.167 226.667,316.833 226,338.5C 221.733,339.822 217.566,339.822 213.5,338.5 Z"/></g>
<g><path style="opacity:1" fill="#253426" d="M 153.5,288.5 C 154.478,288.811 155.145,289.478 155.5,290.5C 154.395,292.611 152.729,293.945 150.5,294.5C 150.577,293.25 151.244,292.417 152.5,292C 151.833,291.667 151.167,291.333 150.5,291C 151.942,290.623 152.942,289.79 153.5,288.5 Z"/></g>
<g><path style="opacity:1" fill="#151312" d="M 153.5,288.5 C 152.942,289.79 151.942,290.623 150.5,291C 151.167,291.333 151.833,291.667 152.5,292C 151.244,292.417 150.577,293.25 150.5,294.5C 149.778,294.082 149.278,293.416 149,292.5C 147.938,293.899 146.605,294.899 145,295.5C 142.927,293.028 141.093,290.361 139.5,287.5C 138.205,286.902 136.872,286.402 135.5,286C 138.682,285.593 141.849,285.093 145,284.5C 148.173,285.187 151.006,286.521 153.5,288.5 Z"/></g>
<g><path style="opacity:0.855" fill="#121f12" d="M 322.5,274.5 C 322.167,294.844 322.5,315.178 323.5,335.5C 326.703,338.122 329.87,338.122 333,335.5C 333.167,319.823 333.667,304.156 334.5,288.5C 336.145,289.036 336.478,289.703 335.5,290.5C 334.167,304.5 334.167,318.5 335.5,332.5C 334.65,334.585 334.316,336.585 334.5,338.5C 330.016,339.811 325.683,339.811 321.5,338.5C 321.169,316.993 321.503,295.66 322.5,274.5 Z"/></g>
<g><path style="opacity:1" fill="#1e271d" d="M 366.5,273.5 C 370.9,272.177 375.4,272.177 380,273.5C 380.827,295.406 380.66,317.24 379.5,339C 376.167,339.667 372.833,339.667 369.5,339C 357.869,324.217 346.869,309.05 336.5,293.5C 340.862,295.656 345.195,297.656 349.5,299.5C 347.563,295.653 346.229,291.486 345.5,287C 344.518,285.946 343.351,285.446 342,285.5C 341.997,282.284 340.831,279.617 338.5,277.5C 336.471,278.629 336.137,278.129 337.5,276C 332.517,274.76 327.517,274.26 322.5,274.5C 327.975,273.511 333.642,273.178 339.5,273.5C 346.655,282.473 353.321,291.806 359.5,301.5C 357.234,301.141 355.401,301.808 354,303.5C 353.667,302.833 353.333,302.167 353,301.5C 352.667,303.167 352.333,304.833 352,306.5C 351.517,305.552 351.351,304.552 351.5,303.5C 350.448,303.351 349.448,303.517 348.5,304C 349.74,306.912 351.406,309.579 353.5,312C 352.72,313.073 352.887,314.24 354,315.5C 354.333,315.167 354.667,314.833 355,314.5C 355.219,315.938 355.719,317.271 356.5,318.5C 357.578,316.525 357.245,314.692 355.5,313C 357.076,312.612 358.409,313.112 359.5,314.5C 358.835,316.101 358.501,317.601 358.5,319C 362.231,323.92 365.398,329.087 368,334.5C 371.307,337.311 374.641,337.644 378,335.5C 378.167,325.167 378.333,314.833 378.5,304.5C 378.499,293.811 377.832,283.478 376.5,273.5C 373.167,273.5 369.833,273.5 366.5,273.5 Z"/></g>
<g><path style="opacity:0.875" fill="#0a1a0a" d="M 366.5,273.5 C 369.833,273.5 373.167,273.5 376.5,273.5C 373.713,274.477 370.713,274.81 367.5,274.5C 367.828,286.345 367.495,298.012 366.5,309.5C 366.5,297.5 366.5,285.5 366.5,273.5 Z"/></g>
<g><path style="opacity:1" fill="#151311" d="M 376.5,273.5 C 377.832,283.478 378.499,293.811 378.5,304.5C 378.333,314.833 378.167,325.167 378,335.5C 374.641,337.644 371.307,337.311 368,334.5C 365.398,329.087 362.231,323.92 358.5,319C 358.501,317.601 358.835,316.101 359.5,314.5C 358.409,313.112 357.076,312.612 355.5,313C 357.245,314.692 357.578,316.525 356.5,318.5C 355.719,317.271 355.219,315.938 355,314.5C 354.667,314.833 354.333,315.167 354,315.5C 352.887,314.24 352.72,313.073 353.5,312C 351.406,309.579 349.74,306.912 348.5,304C 349.448,303.517 350.448,303.351 351.5,303.5C 351.351,304.552 351.517,305.552 352,306.5C 352.333,304.833 352.667,303.167 353,301.5C 353.333,302.167 353.667,302.833 354,303.5C 355.401,301.808 357.234,301.141 359.5,301.5C 361.063,302.945 362.396,304.611 363.5,306.5C 364.072,308.255 364.906,309.922 366,311.5C 366.464,310.906 366.631,310.239 366.5,309.5C 367.495,298.012 367.828,286.345 367.5,274.5C 370.713,274.81 373.713,274.477 376.5,273.5 Z"/></g>
<g><path style="opacity:1" fill="#151512" d="M 446.5,274.5 C 447.483,278.298 447.817,282.298 447.5,286.5C 436.813,286.168 426.146,286.501 415.5,287.5C 415.624,288.107 415.957,288.44 416.5,288.5C 416.5,291.167 416.5,293.833 416.5,296.5C 415.115,297.947 415.448,298.947 417.5,299.5C 426.932,298.184 436.265,298.184 445.5,299.5C 445.789,303.106 445.456,306.606 444.5,310C 441.242,310.212 438.076,310.712 435,311.5C 428.256,310.521 421.422,310.188 414.5,310.5C 414.5,315.833 414.5,321.167 414.5,326.5C 425.838,326.333 437.172,326.5 448.5,327C 450.34,329.826 451.006,332.993 450.5,336.5C 438.449,336.813 426.449,336.479 414.5,335.5C 411.711,337.298 408.711,337.798 405.5,337C 404.874,336.25 404.374,335.416 404,334.5C 403.673,314.78 403.506,295.114 403.5,275.5C 417.818,274.501 432.151,274.167 446.5,274.5 Z"/></g>
<g><path style="opacity:0.824" fill="#445243" d="M 94.5,294.5 C 94.2474,298.04 93.5808,301.373 92.5,304.5C 92.1588,300.84 92.8255,297.507 94.5,294.5 Z"/></g>
<g><path style="opacity:0.871" fill="#243625" d="M 256.5,289.5 C 257.371,292.539 256.871,295.539 255,298.5C 254.241,300.063 253.074,301.063 251.5,301.5C 252.655,297.203 254.321,293.203 256.5,289.5 Z"/></g>
<g><path style="opacity:0.012" fill="#676c67" d="M 416.5,296.5 C 416.557,297.609 416.89,298.609 417.5,299.5C 415.448,298.947 415.115,297.947 416.5,296.5 Z"/></g>
<g><path style="opacity:0.945" fill="#1c271b" d="M 111.5,275.5 C 110.353,279.167 107.853,281.5 104,282.5C 101.049,286.344 98.3821,290.344 96,294.5C 95.231,297.099 95.3977,299.599 96.5,302C 95.267,303.698 94.6004,305.698 94.5,308C 95.8548,312.314 96.5215,316.814 96.5,321.5C 97.5,321.5 98.5,321.5 99.5,321.5C 99.7148,323.179 99.0481,324.179 97.5,324.5C 93.3555,318.285 91.6889,311.619 92.5,304.5C 93.5808,301.373 94.2474,298.04 94.5,294.5C 95.3519,291.777 96.5186,289.11 98,286.5C 100.374,284.461 102.374,282.128 104,279.5C 106.158,277.506 108.658,276.172 111.5,275.5 Z"/></g>
<g><path style="opacity:0.059" fill="#536953" d="M 366.5,273.5 C 366.5,285.5 366.5,297.5 366.5,309.5C 366.631,310.239 366.464,310.906 366,311.5C 364.906,309.922 364.072,308.255 363.5,306.5C 365.159,295.705 366.159,284.705 366.5,273.5 Z"/></g>
<g><path style="opacity:0.027" fill="#4c6d4f" d="M 213.5,309.5 C 213.5,319.167 213.5,328.833 213.5,338.5C 212.506,329.348 212.173,320.015 212.5,310.5C 202.167,310.5 191.833,310.5 181.5,310.5C 191.417,309.501 202.084,309.168 213.5,309.5 Z"/></g>
<g><path style="opacity:0.012" fill="#636363" d="M 335.5,290.5 C 335.557,291.609 335.89,292.609 336.5,293.5C 335.505,306.323 335.171,319.323 335.5,332.5C 334.167,318.5 334.167,304.5 335.5,290.5 Z"/></g>
<g><path style="opacity:0.996" fill="#223223" d="M 250.5,303.5 C 250.662,305.527 250.495,307.527 250,309.5C 249.578,311.426 248.411,312.426 246.5,312.5C 247.083,309.053 248.416,306.053 250.5,303.5 Z"/></g>
<g><path style="opacity:0.035" fill="#506954" d="M 445.5,312.5 C 435.833,313.167 426.167,313.833 416.5,314.5C 415.957,314.44 415.624,314.107 415.5,313.5C 425.478,312.501 435.478,312.168 445.5,312.5 Z"/></g>
<g><path style="opacity:1" fill="#151311" d="M 303.5,319.5 C 303.916,323.938 304.916,328.271 306.5,332.5C 306.332,335.854 304.499,337.521 301,337.5C 296.719,334.698 294.219,330.698 293.5,325.5C 292.975,324.808 292.308,324.308 291.5,324C 279.698,324.084 268.031,324.584 256.5,325.5C 253.952,328.248 252.118,331.581 251,335.5C 246.941,338.259 243.108,337.925 239.5,334.5C 239.08,332.674 239.08,330.674 239.5,328.5C 241.193,327.525 242.693,326.192 244,324.5C 245.234,321.333 246.401,318.166 247.5,315C 246.748,314.329 246.414,313.496 246.5,312.5C 248.411,312.426 249.578,311.426 250,309.5C 250.495,307.527 250.662,305.527 250.5,303.5C 250.328,302.508 250.662,301.842 251.5,301.5C 253.074,301.063 254.241,300.063 255,298.5C 256.871,295.539 257.371,292.539 256.5,289.5C 258.09,289.372 259.423,288.705 260.5,287.5C 260.358,285.618 260.858,283.618 262,281.5C 263.675,280.405 264.842,278.905 265.5,277C 270.47,275.919 275.47,275.586 280.5,276C 281.255,278.175 282.088,280.341 283,282.5C 284.011,283.337 285.178,283.67 286.5,283.5C 286.361,288.302 288.027,292.302 291.5,295.5C 293.521,301.436 295.354,307.103 297,312.5C 299.114,313.953 300.448,315.953 301,318.5C 301.671,319.252 302.504,319.586 303.5,319.5 Z M 283.5,310.5 C 277.355,311.49 271.022,311.823 264.5,311.5C 264.5,310.5 264.5,309.5 264.5,308.5C 266.935,302.523 269.935,296.857 273.5,291.5C 277.136,297.776 280.469,304.109 283.5,310.5 Z"/></g>
<g><path style="opacity:0.075" fill="#576556" d="M 264.5,308.5 C 264.5,309.5 264.5,310.5 264.5,311.5C 271.022,311.823 277.355,311.49 283.5,310.5C 284.043,310.56 284.376,310.893 284.5,311.5C 277.197,312.497 269.863,312.831 262.5,312.5C 262.989,311.005 263.655,309.671 264.5,308.5 Z"/></g>
<g><path style="opacity:1" fill="#1a2219" d="M 283.5,310.5 C 280.469,304.109 277.136,297.776 273.5,291.5C 269.935,296.857 266.935,302.523 264.5,308.5C 263.655,309.671 262.989,311.005 262.5,312.5C 261.035,309.345 261.701,306.511 264.5,304C 264.167,303.667 263.833,303.333 263.5,303C 264.658,299.527 265.824,296.027 267,292.5C 268.712,290.247 270.879,288.58 273.5,287.5C 277.473,291.324 279.973,295.991 281,301.5C 284.191,303.938 285.025,306.938 283.5,310.5 Z"/></g>
<g><path style="opacity:0.86" fill="#253326" d="M 181.5,281.5 C 180.514,285.97 180.181,290.637 180.5,295.5C 179.305,295.134 178.639,294.301 178.5,293C 179.597,287.54 179.764,282.04 179,276.5C 175.606,275.544 172.106,275.211 168.5,275.5C 168.333,295.503 168.5,315.503 169,335.5C 171.634,337.594 174.467,337.927 177.5,336.5C 178.183,329.611 178.85,322.778 179.5,316C 177.957,313.955 178.29,312.455 180.5,311.5C 181.608,320.119 181.775,328.785 181,337.5C 178.959,338.752 176.625,339.419 174,339.5C 171.576,339.47 169.243,339.137 167,338.5C 166.333,316.833 166.333,295.167 167,273.5C 171.413,272.368 175.913,272.201 180.5,273C 181.444,275.719 181.777,278.552 181.5,281.5 Z"/></g>
<g><path style="opacity:0.998" fill="#1d291c" d="M 246.5,312.5 C 246.414,313.496 246.748,314.329 247.5,315C 246.401,318.166 245.234,321.333 244,324.5C 242.693,326.192 241.193,327.525 239.5,328.5C 241.322,322.864 243.655,317.531 246.5,312.5 Z"/></g>
<g><path style="opacity:1" fill="#151512" d="M 112.5,291.5 C 111.5,292.833 110.5,294.167 109.5,295.5C 108.883,295.389 108.383,295.056 108,294.5C 104.641,300.657 103.307,307.324 104,314.5C 105.011,315.337 106.178,315.67 107.5,315.5C 107.485,319.56 107.985,323.56 109,327.5C 109.483,326.552 109.649,325.552 109.5,324.5C 115.055,324.903 120.222,326.236 125,328.5C 128.328,328.978 130.995,327.978 133,325.5C 134.766,324.767 136.599,324.433 138.5,324.5C 138.5,323.5 138.5,322.5 138.5,321.5C 141.095,320.435 143.261,318.768 145,316.5C 146.8,318.145 148.8,319.478 151,320.5C 151.798,322.259 151.631,323.926 150.5,325.5C 147.923,328.325 145.59,331.325 143.5,334.5C 139.173,337.471 134.34,339.471 129,340.5C 115.613,340.89 105.113,335.556 97.5,324.5C 99.0481,324.179 99.7148,323.179 99.5,321.5C 98.5,321.5 97.5,321.5 96.5,321.5C 96.5215,316.814 95.8548,312.314 94.5,308C 94.6004,305.698 95.267,303.698 96.5,302C 95.3977,299.599 95.231,297.099 96,294.5C 98.3821,290.344 101.049,286.344 104,282.5C 107.853,281.5 110.353,279.167 111.5,275.5C 118.819,274.645 126.152,274.479 133.5,275C 136.226,277.296 139.226,279.129 142.5,280.5C 140.037,280.587 137.537,280.587 135,280.5C 134.25,281.126 133.416,281.626 132.5,282C 132.833,282.333 133.167,282.667 133.5,283C 129.167,283.333 124.833,283.667 120.5,284C 120.043,284.414 119.709,284.914 119.5,285.5C 116.833,286.167 114.167,286.833 111.5,287.5C 112.246,288.736 112.579,290.07 112.5,291.5 Z"/></g>
<g><path style="opacity:0.024" fill="#587057" d="M 256.5,326.5 C 256.5,326.167 256.5,325.833 256.5,325.5C 268.216,324.856 279.549,325.522 290.5,327.5C 279.248,326.523 267.914,326.189 256.5,326.5 Z"/></g>
<g><path style="opacity:0.874" fill="#212e21" d="M 402.5,273.5 C 417.343,273.171 432.01,273.504 446.5,274.5C 432.151,274.167 417.818,274.501 403.5,275.5C 403.506,295.114 403.673,314.78 404,334.5C 404.374,335.416 404.874,336.25 405.5,337C 408.711,337.798 411.711,337.298 414.5,335.5C 426.449,336.479 438.449,336.813 450.5,336.5C 451.006,332.993 450.34,329.826 448.5,327C 437.172,326.5 425.838,326.333 414.5,326.5C 414.5,321.167 414.5,315.833 414.5,310.5C 421.422,310.188 428.256,310.521 435,311.5C 438.076,310.712 441.242,310.212 444.5,310C 445.456,306.606 445.789,303.106 445.5,299.5C 446.833,303.833 446.833,308.167 445.5,312.5C 435.478,312.168 425.478,312.501 415.5,313.5C 415.624,314.107 415.957,314.44 416.5,314.5C 415.54,317.765 415.54,321.098 416.5,324.5C 428.747,324.178 440.914,324.512 453,325.5C 453.772,329.89 453.606,334.223 452.5,338.5C 435.603,339.824 418.769,339.824 402,338.5C 401.171,316.663 401.337,294.996 402.5,273.5 Z"/></g>
<g><path style="opacity:1" fill="#1b241a" d="M 109.5,295.5 C 104.458,306.17 106.458,315.336 115.5,323C 123.433,326.55 131.099,326.05 138.5,321.5C 138.5,322.5 138.5,323.5 138.5,324.5C 136.599,324.433 134.766,324.767 133,325.5C 130.995,327.978 128.328,328.978 125,328.5C 120.222,326.236 115.055,324.903 109.5,324.5C 109.649,325.552 109.483,326.552 109,327.5C 107.985,323.56 107.485,319.56 107.5,315.5C 106.178,315.67 105.011,315.337 104,314.5C 103.307,307.324 104.641,300.657 108,294.5C 108.383,295.056 108.883,295.389 109.5,295.5 Z"/></g>
<g><path style="opacity:0.839" fill="#213022" d="M 143.5,334.5 C 145.59,331.325 147.923,328.325 150.5,325.5C 151.631,323.926 151.798,322.259 151,320.5C 148.8,319.478 146.8,318.145 145,316.5C 143.261,318.768 141.095,320.435 138.5,321.5C 139.968,318.418 141.968,315.751 144.5,313.5C 148.735,315.719 152.402,318.553 155.5,322C 152.649,327.35 148.649,331.517 143.5,334.5 Z"/></g>
<g><path style="opacity:0.871" fill="#344834" d="M 308.5,330.5 C 310.31,333.145 311.31,336.145 311.5,339.5C 309.5,339.5 307.5,339.5 305.5,339.5C 306.718,338.839 308.051,338.172 309.5,337.5C 308.626,335.253 308.292,332.92 308.5,330.5 Z"/></g>
<g><path style="opacity:0.897" fill="#172117" d="M 303.5,319.5 C 305.403,322.979 307.07,326.646 308.5,330.5C 308.292,332.92 308.626,335.253 309.5,337.5C 308.051,338.172 306.718,338.839 305.5,339.5C 302.15,339.665 298.817,339.498 295.5,339C 293.726,335.167 292.06,331.333 290.5,327.5C 279.549,325.522 268.216,324.856 256.5,325.5C 268.031,324.584 279.698,324.084 291.5,324C 292.308,324.308 292.975,324.808 293.5,325.5C 294.219,330.698 296.719,334.698 301,337.5C 304.499,337.521 306.332,335.854 306.5,332.5C 304.916,328.271 303.916,323.938 303.5,319.5 Z"/></g>
<g><path style="opacity:0.869" fill="#1c2b1c" d="M 256.5,325.5 C 256.5,325.833 256.5,326.167 256.5,326.5C 255.129,330.778 253.462,334.945 251.5,339C 246.167,339.667 240.833,339.667 235.5,339C 235.167,338.667 234.833,338.333 234.5,338C 235.895,334.612 237.562,331.445 239.5,328.5C 239.08,330.674 239.08,332.674 239.5,334.5C 243.108,337.925 246.941,338.259 251,335.5C 252.118,331.581 253.952,328.248 256.5,325.5 Z"/></g>
<g><path style="opacity:0.87" fill="#202c20" d="M 469.5,272.5 C 474.099,272.2 478.599,272.533 483,273.5C 483.167,290.843 483.667,308.176 484.5,325.5C 495.734,324.677 506.901,324.343 518,324.5C 519.103,326.629 519.603,328.963 519.5,331.5C 519.333,333.5 519.167,335.5 519,337.5C 518.5,338 518,338.5 517.5,339C 501.248,338.861 485.081,338.695 469,338.5C 468.179,316.427 468.345,294.427 469.5,272.5 Z"/></g>
<g><path style="opacity:1" fill="#151311" d="M 470.5,274.5 C 473.836,274.467 477.003,275.134 480,276.5C 480.281,293.005 480.781,309.338 481.5,325.5C 491.787,326.31 502.12,326.81 512.5,327C 513.416,327.374 514.25,327.874 515,328.5C 515.814,330.902 515.647,333.235 514.5,335.5C 502.024,336.196 489.524,336.863 477,337.5C 474.849,337.227 472.849,336.561 471,335.5C 470.5,315.169 470.333,294.836 470.5,274.5 Z"/></g>
</svg>
