<svg width="42" height="10" viewBox="0 0 42 10" fill="none" xmlns="http://www.w3.org/2000/svg">
<path d="M2.94531 9L0.726563 1H1.99609L3.55469 7.19531H3.62891L5.25 1H6.50781L8.12891 7.19922H8.20313L9.75781 1H11.0313L8.80859 9H7.59375L5.91016 3.00781H5.84766L4.16406 9H2.94531ZM12.0381 9V3H13.2061V9H12.0381ZM12.6279 2.07422C12.4248 2.07422 12.2503 2.00651 12.1045 1.87109C11.9613 1.73307 11.8896 1.56901 11.8896 1.37891C11.8896 1.1862 11.9613 1.02214 12.1045 0.886718C12.2503 0.748698 12.4248 0.679687 12.6279 0.679687C12.8311 0.679687 13.0042 0.748698 13.1475 0.886718C13.2933 1.02214 13.3662 1.1862 13.3662 1.37891C13.3662 1.56901 13.2933 1.73307 13.1475 1.87109C13.0042 2.00651 12.8311 2.07422 12.6279 2.07422ZM19.2734 4.46484L18.2148 4.65234C18.1706 4.51693 18.1003 4.38802 18.0039 4.26562C17.9102 4.14323 17.7826 4.04297 17.6211 3.96484C17.4596 3.88672 17.2578 3.84766 17.0156 3.84766C16.6849 3.84766 16.4089 3.92187 16.1875 4.07031C15.9661 4.21615 15.8555 4.40495 15.8555 4.63672C15.8555 4.83724 15.9297 4.9987 16.0781 5.12109C16.2266 5.24349 16.4661 5.34375 16.7969 5.42187L17.75 5.64062C18.3021 5.76823 18.7135 5.96484 18.9844 6.23047C19.2552 6.49609 19.3906 6.84115 19.3906 7.26563C19.3906 7.625 19.2865 7.94531 19.0781 8.22656C18.8724 8.50521 18.5846 8.72396 18.2148 8.88281C17.8477 9.04167 17.4219 9.12109 16.9375 9.12109C16.2656 9.12109 15.7174 8.97786 15.293 8.69141C14.8685 8.40234 14.6081 7.99219 14.5117 7.46094L15.6406 7.28906C15.7109 7.58333 15.8555 7.80599 16.0742 7.95703C16.293 8.10547 16.5781 8.17969 16.9297 8.17969C17.3125 8.17969 17.6185 8.10026 17.8477 7.94141C18.0768 7.77995 18.1914 7.58333 18.1914 7.35156C18.1914 7.16406 18.1211 7.00651 17.9805 6.87891C17.8424 6.7513 17.6302 6.65495 17.3438 6.58984L16.3281 6.36719C15.7682 6.23958 15.3542 6.03646 15.0859 5.75781C14.8203 5.47917 14.6875 5.1263 14.6875 4.69922C14.6875 4.34505 14.7865 4.03516 14.9844 3.76953C15.1823 3.50391 15.4557 3.29687 15.8047 3.14844C16.1536 2.9974 16.5534 2.92188 17.0039 2.92188C17.6523 2.92188 18.1628 3.0625 18.5352 3.34375C18.9076 3.6224 19.1536 3.99609 19.2734 4.46484ZM21.8428 5.4375V9H20.6748V1H21.8271V3.97656H21.9014C22.042 3.65365 22.2568 3.39714 22.5459 3.20703C22.835 3.01693 23.2126 2.92188 23.6787 2.92188C24.0902 2.92188 24.4495 3.00651 24.7568 3.17578C25.0667 3.34505 25.3063 3.59766 25.4756 3.93359C25.6475 4.26693 25.7334 4.68359 25.7334 5.18359V9H24.5654V5.32422C24.5654 4.88411 24.4521 4.54297 24.2256 4.30078C23.999 4.05599 23.6839 3.93359 23.2803 3.93359C23.0042 3.93359 22.7568 3.99219 22.5381 4.10937C22.3219 4.22656 22.1514 4.39844 22.0264 4.625C21.904 4.84896 21.8428 5.11979 21.8428 5.4375ZM28.46 1V9H27.292V1H28.46ZM30.0313 9V3H31.1992V9H30.0313ZM30.6211 2.07422C30.418 2.07422 30.2435 2.00651 30.0977 1.87109C29.9544 1.73307 29.8828 1.56901 29.8828 1.37891C29.8828 1.1862 29.9544 1.02214 30.0977 0.886718C30.2435 0.748698 30.418 0.679687 30.6211 0.679687C30.8242 0.679687 30.9974 0.748698 31.1406 0.886718C31.2865 1.02214 31.3594 1.1862 31.3594 1.37891C31.3594 1.56901 31.2865 1.73307 31.1406 1.87109C30.9974 2.00651 30.8242 2.07422 30.6211 2.07422ZM37.2666 4.46484L36.208 4.65234C36.1637 4.51693 36.0934 4.38802 35.9971 4.26562C35.9033 4.14323 35.7757 4.04297 35.6143 3.96484C35.4528 3.88672 35.251 3.84766 35.0088 3.84766C34.6781 3.84766 34.402 3.92187 34.1807 4.07031C33.9593 4.21615 33.8486 4.40495 33.8486 4.63672C33.8486 4.83724 33.9229 4.9987 34.0713 5.12109C34.2197 5.24349 34.4593 5.34375 34.79 5.42187L35.7432 5.64062C36.2952 5.76823 36.7067 5.96484 36.9775 6.23047C37.2484 6.49609 37.3838 6.84115 37.3838 7.26563C37.3838 7.625 37.2796 7.94531 37.0713 8.22656C36.8656 8.50521 36.5778 8.72396 36.208 8.88281C35.8408 9.04167 35.415 9.12109 34.9307 9.12109C34.2588 9.12109 33.7106 8.97786 33.2861 8.69141C32.8617 8.40234 32.6012 7.99219 32.5049 7.46094L33.6338 7.28906C33.7041 7.58333 33.8486 7.80599 34.0674 7.95703C34.2861 8.10547 34.5713 8.17969 34.9229 8.17969C35.3057 8.17969 35.6117 8.10026 35.8408 7.94141C36.07 7.77995 36.1846 7.58333 36.1846 7.35156C36.1846 7.16406 36.1143 7.00651 35.9736 6.87891C35.8356 6.7513 35.6234 6.65495 35.3369 6.58984L34.3213 6.36719C33.7614 6.23958 33.3473 6.03646 33.0791 5.75781C32.8135 5.47917 32.6807 5.1263 32.6807 4.69922C32.6807 4.34505 32.7796 4.03516 32.9775 3.76953C33.1755 3.50391 33.4489 3.29687 33.7979 3.14844C34.1468 2.9974 34.5465 2.92188 34.9971 2.92188C35.6455 2.92188 36.1559 3.0625 36.5283 3.34375C36.9007 3.6224 37.1468 3.99609 37.2666 4.46484ZM41.4688 3V3.9375H38.1914V3H41.4688ZM39.0703 1.5625H40.2383V7.23828C40.2383 7.46484 40.2721 7.63542 40.3398 7.75C40.4076 7.86198 40.4948 7.9388 40.6016 7.98047C40.7109 8.01953 40.8294 8.03906 40.957 8.03906C41.0508 8.03906 41.1328 8.03255 41.2031 8.01953C41.2734 8.00651 41.3281 7.99609 41.3672 7.98828L41.5781 8.95312C41.5104 8.97917 41.4141 9.00521 41.2891 9.03125C41.1641 9.0599 41.0078 9.07552 40.8203 9.07813C40.513 9.08333 40.2266 9.02865 39.9609 8.91406C39.6953 8.79948 39.4805 8.6224 39.3164 8.38281C39.1523 8.14323 39.0703 7.84245 39.0703 7.48047V1.5625Z" fill="#9775FA"/>
</svg>
