<?xml version="1.0" encoding="UTF-8"?>
<!DOCTYPE svg PUBLIC "-//W3C//DTD SVG 1.1//EN" "http://www.w3.org/Graphics/SVG/1.1/DTD/svg11.dtd">
<svg xmlns="http://www.w3.org/2000/svg" version="1.1" width="275px" height="183px" style="shape-rendering:geometricPrecision; text-rendering:geometricPrecision; image-rendering:optimizeQuality; fill-rule:evenodd; clip-rule:evenodd" xmlns:xlink="http://www.w3.org/1999/xlink">
<g><path style="opacity:1" fill="#0e0e0e" d="M 129.5,109.5 C 129.709,110.922 130.209,112.255 131,113.5C 131.5,92.5026 131.667,71.5026 131.5,50.5C 135.298,49.5166 139.298,49.1832 143.5,49.5C 143.185,63.2456 143.519,76.9123 144.5,90.5C 143.504,104.323 143.171,118.323 143.5,132.5C 137.167,132.5 130.833,132.5 124.5,132.5C 124.672,131.508 124.338,130.842 123.5,130.5C 119.938,122.039 116.938,113.373 114.5,104.5C 114.672,103.508 114.338,102.842 113.5,102.5C 108.646,90.7721 104.313,78.7721 100.5,66.5C 100.167,65.8333 99.8333,65.1667 99.5,64.5C 101.052,58.1751 103.385,52.1751 106.5,46.5C 114.758,67.2721 122.424,88.2721 129.5,109.5 Z"/></g>
<g><path style="opacity:1" fill="#171717" d="M 231.5,131.5 C 231.5,132.167 231.5,132.833 231.5,133.5C 227.167,133.5 222.833,133.5 218.5,133.5C 218.672,132.508 218.338,131.842 217.5,131.5C 214.167,122.5 210.833,113.5 207.5,104.5C 207.5,104.167 207.5,103.833 207.5,103.5C 202.573,91.3861 198.24,79.0527 194.5,66.5C 194.167,65.8333 193.833,65.1667 193.5,64.5C 195.222,58.8318 197.056,53.1651 199,47.5C 200.156,46.0072 200.99,46.1739 201.5,48C 211.803,75.7427 221.803,103.576 231.5,131.5 Z"/></g>
<g><path style="opacity:1" fill="#1d1d1d" d="M 36.5,49.5 C 38.8333,49.5 41.1667,49.5 43.5,49.5C 48.0323,49.1818 52.3656,49.5151 56.5,50.5C 45.8333,52.5 39.5,58.8333 37.5,69.5C 36.5093,63.021 36.176,56.3543 36.5,49.5 Z"/></g>
<g><path style="opacity:0.544" fill="#b8b8b8" d="M 43.5,49.5 C 60.4926,49.3116 77.4926,49.3116 94.5,49.5C 88.8652,48.9634 83.5318,49.6301 78.5,51.5C 71.3524,50.5084 64.0191,50.175 56.5,50.5C 52.3656,49.5151 48.0323,49.1818 43.5,49.5 Z"/></g>
<g><path style="opacity:1" fill="#151515" d="M 94.5,49.5 C 78.8611,76.8162 63.1944,104.15 47.5,131.5C 46.6618,131.842 46.3284,132.508 46.5,133.5C 41.1563,133.666 35.8229,133.499 30.5,133C 46.6524,105.853 62.6524,78.6858 78.5,51.5C 83.5318,49.6301 88.8652,48.9634 94.5,49.5 Z"/></g>
<g><path style="opacity:1" fill="#202020" d="M 160.5,51.5 C 161.919,50.5489 163.585,50.2155 165.5,50.5C 177.383,52.2167 184.05,59.0501 185.5,71C 183.578,81.0892 177.578,86.9226 167.5,88.5C 166.508,88.6716 165.842,88.3382 165.5,87.5C 167.596,85.5667 169.096,83.2334 170,80.5C 170.667,74.5 170.667,68.5 170,62.5C 168.431,57.4326 165.264,53.7659 160.5,51.5 Z"/></g>
<g><path style="opacity:0.071" fill="#e5e5e5" d="M 130.5,50.5 C 130.833,50.5 131.167,50.5 131.5,50.5C 131.667,71.5026 131.5,92.5026 131,113.5C 130.209,112.255 129.709,110.922 129.5,109.5C 130.497,90.0071 130.83,70.3404 130.5,50.5 Z"/></g>
<g><path style="opacity:0.437" fill="#a3a3a3" d="M 165.5,50.5 C 163.585,50.2155 161.919,50.5489 160.5,51.5C 155.213,50.6576 149.88,50.3243 144.5,50.5C 144.5,63.1667 144.5,75.8333 144.5,88.5C 150.486,89.6157 156.486,89.6157 162.5,88.5C 161.833,89.1667 161.167,89.8333 160.5,90.5C 155.167,90.5 149.833,90.5 144.5,90.5C 143.519,76.9123 143.185,63.2456 143.5,49.5C 139.298,49.1832 135.298,49.5166 131.5,50.5C 131.167,50.5 130.833,50.5 130.5,50.5C 127.15,50.665 123.817,50.4983 120.5,50C 120.833,49.6667 121.167,49.3333 121.5,49C 126.333,48.8333 131.167,48.6667 136,48.5C 142.574,48.9534 149.074,48.9534 155.5,48.5C 159.002,49.0111 162.335,49.6778 165.5,50.5 Z"/></g>
<g><path style="opacity:0.42" fill="#a4a4a4" d="M 36.5,49.5 C 36.176,56.3543 36.5093,63.021 37.5,69.5C 37.7989,71.604 37.4656,73.604 36.5,75.5C 35.1786,66.6755 35.1786,58.0088 36.5,49.5 Z"/></g>
<g><path style="opacity:0.408" fill="#9d9d9d" d="M 193.5,64.5 C 193.833,65.1667 194.167,65.8333 194.5,66.5C 190.304,76.4203 186.304,86.4203 182.5,96.5C 181.508,96.6716 180.842,96.3382 180.5,95.5C 185.092,85.3119 189.425,74.9785 193.5,64.5 Z"/></g>
<g><path style="opacity:0.337" fill="#a2a2a2" d="M 99.5,64.5 C 99.8333,65.1667 100.167,65.8333 100.5,66.5C 95.6372,78.4213 90.9706,90.4213 86.5,102.5C 86.5,101.833 86.1667,101.5 85.5,101.5C 89.9285,88.9939 94.5952,76.6606 99.5,64.5 Z"/></g>
<g><path style="opacity:1" fill="#0b0b0b" d="M 162.5,88.5 C 162.833,88.5 163.167,88.5 163.5,88.5C 163.938,88.4346 164.272,88.6012 164.5,89C 163.756,90.0386 162.756,90.5386 161.5,90.5C 161.167,90.5 160.833,90.5 160.5,90.5C 161.167,89.8333 161.833,89.1667 162.5,88.5 Z"/></g>
<g><path style="opacity:0.475" fill="#9a9a9a" d="M 163.5,88.5 C 163.842,87.6618 164.508,87.3284 165.5,87.5C 165.842,88.3382 166.508,88.6716 167.5,88.5C 167.833,89.1667 168.167,89.8333 168.5,90.5C 166.901,90.2322 165.568,90.5655 164.5,91.5C 163.209,91.7373 162.209,91.404 161.5,90.5C 162.756,90.5386 163.756,90.0386 164.5,89C 164.272,88.6012 163.938,88.4346 163.5,88.5 Z"/></g>
<g><path style="opacity:1" fill="#161616" d="M 164.5,91.5 C 165.568,90.5655 166.901,90.2322 168.5,90.5C 173.232,90.6268 177.232,92.2935 180.5,95.5C 180.842,96.3382 181.508,96.6716 182.5,96.5C 184.604,98.3718 185.937,100.705 186.5,103.5C 186.328,104.492 186.662,105.158 187.5,105.5C 188.176,113.372 189.009,121.372 190,129.5C 190.66,131.324 191.827,132.657 193.5,133.5C 193.833,134.167 194.167,134.833 194.5,135.5C 183.373,136.448 177.039,131.448 175.5,120.5C 175.567,119.041 175.234,117.708 174.5,116.5C 174.861,110.407 174.361,104.407 173,98.5C 171.215,94.8812 168.382,92.5479 164.5,91.5 Z"/></g>
<g><path style="opacity:0.593" fill="#656565" d="M 85.5,101.5 C 86.1667,101.5 86.5,101.833 86.5,102.5C 95.5,103.833 104.5,103.833 113.5,102.5C 114.338,102.842 114.672,103.508 114.5,104.5C 104.833,104.5 95.1667,104.5 85.5,104.5C 85.5,103.833 85.5,103.167 85.5,102.5C 85.5,102.167 85.5,101.833 85.5,101.5 Z"/></g>
<g><path style="opacity:0.636" fill="#646464" d="M 186.5,103.5 C 193.5,103.5 200.5,103.5 207.5,103.5C 207.5,103.833 207.5,104.167 207.5,104.5C 200.646,104.176 193.979,104.509 187.5,105.5C 186.662,105.158 186.328,104.492 186.5,103.5 Z"/></g>
<g><path style="opacity:1" fill="#171717" d="M 94.5,115.5 C 95.4896,121.31 95.8229,127.31 95.5,133.5C 88.5,133.5 81.5,133.5 74.5,133.5C 74.5,133.167 74.5,132.833 74.5,132.5C 76.099,132.768 77.4324,132.434 78.5,131.5C 86.8333,129.167 92.1667,123.833 94.5,115.5 Z"/></g>
<g><path style="opacity:0.408" fill="#a1a1a1" d="M 85.5,102.5 C 85.5,103.167 85.5,103.833 85.5,104.5C 82.9059,113.281 79.9059,121.948 76.5,130.5C 76.9569,131.298 77.6236,131.631 78.5,131.5C 77.4324,132.434 76.099,132.768 74.5,132.5C 77.7957,122.271 81.4623,112.271 85.5,102.5 Z"/></g>
<g><path style="opacity:0.514" fill="#7f7f7f" d="M 95.5,133.5 C 95.8229,127.31 95.4896,121.31 94.5,115.5C 94.2978,113.011 94.7978,110.677 96,108.5C 96.8232,117.01 96.6566,125.344 95.5,133.5 Z"/></g>
<g><path style="opacity:0.544" fill="#767676" d="M 47.5,131.5 C 56.3178,132.493 65.3178,132.827 74.5,132.5C 74.5,132.833 74.5,133.167 74.5,133.5C 65.1667,133.5 55.8333,133.5 46.5,133.5C 46.3284,132.508 46.6618,131.842 47.5,131.5 Z"/></g>
<g><path style="opacity:0.538" fill="#868686" d="M 123.5,130.5 C 124.338,130.842 124.672,131.508 124.5,132.5C 124.5,132.833 124.5,133.167 124.5,133.5C 120.818,133.665 117.152,133.499 113.5,133C 117.311,133.083 120.645,132.25 123.5,130.5 Z"/></g>
<g><path style="opacity:0.852" fill="#5a5a5a" d="M 144.5,90.5 C 144.5,104.5 144.5,118.5 144.5,132.5C 145.893,134.405 139.226,134.738 124.5,133.5C 124.5,133.167 124.5,132.833 124.5,132.5C 130.833,132.5 137.167,132.5 143.5,132.5C 143.171,118.323 143.504,104.323 144.5,90.5 Z"/></g>
<g><path style="opacity:0.537" fill="#898989" d="M 174.5,116.5 C 175.234,117.708 175.567,119.041 175.5,120.5C 174.503,120.47 173.836,120.97 173.5,122C 172.554,125.51 171.22,128.843 169.5,132C 172.167,132.333 174.833,132.667 177.5,133C 171.5,133.667 165.5,133.667 159.5,133C 162.553,132.821 165.553,132.321 168.5,131.5C 170.135,126.241 172.135,121.241 174.5,116.5 Z"/></g>
<g><path style="opacity:0.575" fill="#7e7e7e" d="M 217.5,131.5 C 218.338,131.842 218.672,132.508 218.5,133.5C 214.818,133.665 211.152,133.499 207.5,133C 211.025,132.821 214.359,132.321 217.5,131.5 Z"/></g>
<g><path style="opacity:0.564" fill="#7e7e7e" d="M 231.5,131.5 C 247.346,132.817 247.346,133.484 231.5,133.5C 231.5,132.833 231.5,132.167 231.5,131.5 Z"/></g>
<g><path style="opacity:0.284" fill="#a5a5a5" d="M 194.5,135.5 C 194.167,134.833 193.833,134.167 193.5,133.5C 196.972,133.874 199.972,132.874 202.5,130.5C 201.606,134.001 198.939,135.668 194.5,135.5 Z"/></g>
</svg>
